<mxfile host="app.diagrams.net" modified="2021-05-06T14:27:11.685Z" agent="5.0 (Windows NT 10.0; Win64; x64) AppleWebKit/537.36 (KHTML, like Gecko) Chrome/90.0.4430.93 Safari/537.36" etag="49qxuISL9_auYkUXeIDJ" version="14.6.9" type="github">
  <diagram id="AbuUHd3BJrYq02--Rzd7" name="Page-1">
    <mxGraphModel dx="782" dy="514" grid="1" gridSize="10" guides="1" tooltips="1" connect="1" arrows="1" fold="1" page="1" pageScale="1" pageWidth="827" pageHeight="1169" math="0" shadow="0">
      <root>
        <mxCell id="0" />
        <mxCell id="1" parent="0" />
        <mxCell id="OWnD7IlCAdp8iNeFFtB5-26" value="" style="rounded=0;whiteSpace=wrap;html=1;" vertex="1" parent="1">
          <mxGeometry x="40" y="90" width="240" height="200" as="geometry" />
        </mxCell>
        <mxCell id="OWnD7IlCAdp8iNeFFtB5-5" value="" style="endArrow=none;html=1;exitX=0.001;exitY=0.076;exitDx=0;exitDy=0;exitPerimeter=0;" edge="1" parent="1">
          <mxGeometry width="50" height="50" relative="1" as="geometry">
            <mxPoint x="40.00000000000004" y="95.84000000000003" as="sourcePoint" />
            <mxPoint x="69.3" y="96" as="targetPoint" />
            <Array as="points" />
          </mxGeometry>
        </mxCell>
        <mxCell id="OWnD7IlCAdp8iNeFFtB5-6" value="" style="endArrow=none;html=1;exitX=0.001;exitY=0.076;exitDx=0;exitDy=0;exitPerimeter=0;" edge="1" parent="1">
          <mxGeometry width="50" height="50" relative="1" as="geometry">
            <mxPoint x="40.00000000000004" y="105.84000000000003" as="sourcePoint" />
            <mxPoint x="69.3" y="106" as="targetPoint" />
            <Array as="points" />
          </mxGeometry>
        </mxCell>
        <mxCell id="OWnD7IlCAdp8iNeFFtB5-7" value="" style="endArrow=none;html=1;exitX=0.001;exitY=0.076;exitDx=0;exitDy=0;exitPerimeter=0;" edge="1" parent="1">
          <mxGeometry width="50" height="50" relative="1" as="geometry">
            <mxPoint x="40.00000000000004" y="115.84000000000003" as="sourcePoint" />
            <mxPoint x="69.3" y="116" as="targetPoint" />
            <Array as="points" />
          </mxGeometry>
        </mxCell>
        <mxCell id="OWnD7IlCAdp8iNeFFtB5-8" value="" style="endArrow=none;html=1;exitX=0.001;exitY=0.076;exitDx=0;exitDy=0;exitPerimeter=0;" edge="1" parent="1">
          <mxGeometry width="50" height="50" relative="1" as="geometry">
            <mxPoint x="40.00000000000004" y="130.00000000000003" as="sourcePoint" />
            <mxPoint x="69.3" y="130.16" as="targetPoint" />
            <Array as="points" />
          </mxGeometry>
        </mxCell>
        <mxCell id="OWnD7IlCAdp8iNeFFtB5-9" value="" style="endArrow=none;html=1;exitX=0.001;exitY=0.076;exitDx=0;exitDy=0;exitPerimeter=0;" edge="1" parent="1">
          <mxGeometry width="50" height="50" relative="1" as="geometry">
            <mxPoint x="40.00000000000004" y="140.00000000000003" as="sourcePoint" />
            <mxPoint x="69.3" y="140.16" as="targetPoint" />
            <Array as="points" />
          </mxGeometry>
        </mxCell>
        <mxCell id="OWnD7IlCAdp8iNeFFtB5-10" value="" style="endArrow=none;html=1;exitX=0.001;exitY=0.076;exitDx=0;exitDy=0;exitPerimeter=0;" edge="1" parent="1">
          <mxGeometry width="50" height="50" relative="1" as="geometry">
            <mxPoint x="40.00000000000004" y="150.00000000000003" as="sourcePoint" />
            <mxPoint x="69.3" y="150.16" as="targetPoint" />
            <Array as="points" />
          </mxGeometry>
        </mxCell>
        <mxCell id="OWnD7IlCAdp8iNeFFtB5-11" value="" style="endArrow=none;html=1;exitX=0.001;exitY=0.076;exitDx=0;exitDy=0;exitPerimeter=0;" edge="1" parent="1">
          <mxGeometry width="50" height="50" relative="1" as="geometry">
            <mxPoint x="40.00000000000004" y="160.00000000000003" as="sourcePoint" />
            <mxPoint x="69.3" y="160.16" as="targetPoint" />
            <Array as="points" />
          </mxGeometry>
        </mxCell>
        <mxCell id="OWnD7IlCAdp8iNeFFtB5-12" value="" style="endArrow=none;html=1;exitX=0.001;exitY=0.076;exitDx=0;exitDy=0;exitPerimeter=0;" edge="1" parent="1">
          <mxGeometry width="50" height="50" relative="1" as="geometry">
            <mxPoint x="40" y="170.00000000000003" as="sourcePoint" />
            <mxPoint x="69.29999999999995" y="170.16" as="targetPoint" />
            <Array as="points" />
          </mxGeometry>
        </mxCell>
        <mxCell id="OWnD7IlCAdp8iNeFFtB5-13" value="" style="endArrow=none;html=1;exitX=0.001;exitY=0.076;exitDx=0;exitDy=0;exitPerimeter=0;" edge="1" parent="1">
          <mxGeometry width="50" height="50" relative="1" as="geometry">
            <mxPoint x="40" y="190" as="sourcePoint" />
            <mxPoint x="69.29999999999995" y="190.15999999999997" as="targetPoint" />
            <Array as="points" />
          </mxGeometry>
        </mxCell>
        <mxCell id="OWnD7IlCAdp8iNeFFtB5-14" value="" style="endArrow=none;html=1;exitX=0.001;exitY=0.076;exitDx=0;exitDy=0;exitPerimeter=0;" edge="1" parent="1">
          <mxGeometry width="50" height="50" relative="1" as="geometry">
            <mxPoint x="40" y="180" as="sourcePoint" />
            <mxPoint x="69.29999999999995" y="180.15999999999997" as="targetPoint" />
            <Array as="points" />
          </mxGeometry>
        </mxCell>
        <mxCell id="OWnD7IlCAdp8iNeFFtB5-16" value="" style="endArrow=none;html=1;exitX=0.001;exitY=0.076;exitDx=0;exitDy=0;exitPerimeter=0;" edge="1" parent="1">
          <mxGeometry width="50" height="50" relative="1" as="geometry">
            <mxPoint x="40" y="280" as="sourcePoint" />
            <mxPoint x="69.29999999999995" y="280.15999999999997" as="targetPoint" />
            <Array as="points" />
          </mxGeometry>
        </mxCell>
        <mxCell id="OWnD7IlCAdp8iNeFFtB5-17" value="" style="endArrow=none;html=1;exitX=0.001;exitY=0.076;exitDx=0;exitDy=0;exitPerimeter=0;" edge="1" parent="1">
          <mxGeometry width="50" height="50" relative="1" as="geometry">
            <mxPoint x="40" y="280" as="sourcePoint" />
            <mxPoint x="69.29999999999995" y="280.15999999999997" as="targetPoint" />
            <Array as="points" />
          </mxGeometry>
        </mxCell>
        <mxCell id="OWnD7IlCAdp8iNeFFtB5-18" value="" style="endArrow=none;html=1;exitX=0.001;exitY=0.076;exitDx=0;exitDy=0;exitPerimeter=0;" edge="1" parent="1">
          <mxGeometry width="50" height="50" relative="1" as="geometry">
            <mxPoint x="40" y="210.00000000000003" as="sourcePoint" />
            <mxPoint x="69.29999999999995" y="210.16" as="targetPoint" />
            <Array as="points" />
          </mxGeometry>
        </mxCell>
        <mxCell id="OWnD7IlCAdp8iNeFFtB5-19" value="" style="endArrow=none;html=1;exitX=0.001;exitY=0.076;exitDx=0;exitDy=0;exitPerimeter=0;" edge="1" parent="1">
          <mxGeometry width="50" height="50" relative="1" as="geometry">
            <mxPoint x="40" y="220" as="sourcePoint" />
            <mxPoint x="69.29999999999995" y="220.15999999999997" as="targetPoint" />
            <Array as="points" />
          </mxGeometry>
        </mxCell>
        <mxCell id="OWnD7IlCAdp8iNeFFtB5-20" value="" style="endArrow=none;html=1;exitX=0.001;exitY=0.076;exitDx=0;exitDy=0;exitPerimeter=0;" edge="1" parent="1">
          <mxGeometry width="50" height="50" relative="1" as="geometry">
            <mxPoint x="40" y="240" as="sourcePoint" />
            <mxPoint x="69.29999999999995" y="240.15999999999997" as="targetPoint" />
            <Array as="points" />
          </mxGeometry>
        </mxCell>
        <mxCell id="OWnD7IlCAdp8iNeFFtB5-21" value="" style="endArrow=none;html=1;exitX=0.001;exitY=0.076;exitDx=0;exitDy=0;exitPerimeter=0;" edge="1" parent="1">
          <mxGeometry width="50" height="50" relative="1" as="geometry">
            <mxPoint x="40" y="270" as="sourcePoint" />
            <mxPoint x="69.29999999999995" y="270.15999999999997" as="targetPoint" />
            <Array as="points" />
          </mxGeometry>
        </mxCell>
        <mxCell id="OWnD7IlCAdp8iNeFFtB5-22" value="" style="endArrow=none;html=1;exitX=0.001;exitY=0.076;exitDx=0;exitDy=0;exitPerimeter=0;" edge="1" parent="1">
          <mxGeometry width="50" height="50" relative="1" as="geometry">
            <mxPoint x="40" y="230" as="sourcePoint" />
            <mxPoint x="69.29999999999995" y="230.15999999999997" as="targetPoint" />
            <Array as="points" />
          </mxGeometry>
        </mxCell>
        <mxCell id="OWnD7IlCAdp8iNeFFtB5-23" value="" style="endArrow=none;html=1;exitX=0.001;exitY=0.076;exitDx=0;exitDy=0;exitPerimeter=0;" edge="1" parent="1">
          <mxGeometry width="50" height="50" relative="1" as="geometry">
            <mxPoint x="40" y="250" as="sourcePoint" />
            <mxPoint x="69.29999999999995" y="250.15999999999997" as="targetPoint" />
            <Array as="points" />
          </mxGeometry>
        </mxCell>
        <mxCell id="OWnD7IlCAdp8iNeFFtB5-24" value="" style="endArrow=none;html=1;exitX=0.001;exitY=0.076;exitDx=0;exitDy=0;exitPerimeter=0;" edge="1" parent="1">
          <mxGeometry width="50" height="50" relative="1" as="geometry">
            <mxPoint x="40" y="200" as="sourcePoint" />
            <mxPoint x="69.29999999999995" y="200.15999999999997" as="targetPoint" />
            <Array as="points" />
          </mxGeometry>
        </mxCell>
        <mxCell id="OWnD7IlCAdp8iNeFFtB5-25" value="" style="endArrow=none;html=1;exitX=0.001;exitY=0.076;exitDx=0;exitDy=0;exitPerimeter=0;" edge="1" parent="1">
          <mxGeometry width="50" height="50" relative="1" as="geometry">
            <mxPoint x="40" y="260" as="sourcePoint" />
            <mxPoint x="69.29999999999995" y="260.15999999999997" as="targetPoint" />
            <Array as="points" />
          </mxGeometry>
        </mxCell>
        <mxCell id="OWnD7IlCAdp8iNeFFtB5-31" value="" style="endArrow=none;html=1;" edge="1" parent="1">
          <mxGeometry width="50" height="50" relative="1" as="geometry">
            <mxPoint x="70" y="288" as="sourcePoint" />
            <mxPoint x="70" y="90" as="targetPoint" />
          </mxGeometry>
        </mxCell>
        <mxCell id="OWnD7IlCAdp8iNeFFtB5-54" value="ASC" style="shape=rect;dashed=0;shadow=0;html=1;whiteSpace=wrap;" vertex="1" parent="1">
          <mxGeometry x="70" y="110" width="60" height="30" as="geometry" />
        </mxCell>
        <mxCell id="OWnD7IlCAdp8iNeFFtB5-76" value="" style="endArrow=none;html=1;" edge="1" parent="1">
          <mxGeometry width="50" height="50" relative="1" as="geometry">
            <mxPoint x="130" y="290" as="sourcePoint" />
            <mxPoint x="130" y="91" as="targetPoint" />
          </mxGeometry>
        </mxCell>
        <mxCell id="OWnD7IlCAdp8iNeFFtB5-79" value="" style="endArrow=none;html=1;entryX=0.5;entryY=0;entryDx=0;entryDy=0;" edge="1" parent="1" target="OWnD7IlCAdp8iNeFFtB5-26">
          <mxGeometry width="50" height="50" relative="1" as="geometry">
            <mxPoint x="158" y="289" as="sourcePoint" />
            <mxPoint x="430" y="240" as="targetPoint" />
          </mxGeometry>
        </mxCell>
        <mxCell id="OWnD7IlCAdp8iNeFFtB5-83" value="ASC" style="shape=rect;dashed=0;shadow=0;html=1;whiteSpace=wrap;" vertex="1" parent="1">
          <mxGeometry x="190" y="140" width="60" height="30" as="geometry" />
        </mxCell>
        <mxCell id="OWnD7IlCAdp8iNeFFtB5-84" value="" style="endArrow=none;html=1;" edge="1" parent="1">
          <mxGeometry width="50" height="50" relative="1" as="geometry">
            <mxPoint x="250" y="292" as="sourcePoint" />
            <mxPoint x="250" y="89" as="targetPoint" />
          </mxGeometry>
        </mxCell>
        <mxCell id="OWnD7IlCAdp8iNeFFtB5-85" value="" style="endArrow=none;html=1;" edge="1" parent="1">
          <mxGeometry width="50" height="50" relative="1" as="geometry">
            <mxPoint x="190" y="291" as="sourcePoint" />
            <mxPoint x="191" y="89" as="targetPoint" />
          </mxGeometry>
        </mxCell>
        <mxCell id="OWnD7IlCAdp8iNeFFtB5-86" value="" style="endArrow=none;html=1;" edge="1" parent="1">
          <mxGeometry width="50" height="50" relative="1" as="geometry">
            <mxPoint x="130" y="100" as="sourcePoint" />
            <mxPoint x="190" y="100" as="targetPoint" />
          </mxGeometry>
        </mxCell>
        <mxCell id="OWnD7IlCAdp8iNeFFtB5-87" value="" style="endArrow=none;html=1;" edge="1" parent="1">
          <mxGeometry width="50" height="50" relative="1" as="geometry">
            <mxPoint x="130" y="110" as="sourcePoint" />
            <mxPoint x="190" y="110" as="targetPoint" />
          </mxGeometry>
        </mxCell>
        <mxCell id="OWnD7IlCAdp8iNeFFtB5-88" value="" style="endArrow=none;html=1;" edge="1" parent="1">
          <mxGeometry width="50" height="50" relative="1" as="geometry">
            <mxPoint x="130" y="120" as="sourcePoint" />
            <mxPoint x="190" y="120" as="targetPoint" />
          </mxGeometry>
        </mxCell>
        <mxCell id="OWnD7IlCAdp8iNeFFtB5-89" value="" style="endArrow=none;html=1;" edge="1" parent="1">
          <mxGeometry width="50" height="50" relative="1" as="geometry">
            <mxPoint x="130" y="130" as="sourcePoint" />
            <mxPoint x="190" y="130" as="targetPoint" />
          </mxGeometry>
        </mxCell>
        <mxCell id="OWnD7IlCAdp8iNeFFtB5-91" value="" style="endArrow=none;html=1;" edge="1" parent="1">
          <mxGeometry width="50" height="50" relative="1" as="geometry">
            <mxPoint x="130" y="139" as="sourcePoint" />
            <mxPoint x="190" y="139" as="targetPoint" />
          </mxGeometry>
        </mxCell>
        <mxCell id="OWnD7IlCAdp8iNeFFtB5-92" value="" style="endArrow=none;html=1;" edge="1" parent="1">
          <mxGeometry width="50" height="50" relative="1" as="geometry">
            <mxPoint x="130" y="150" as="sourcePoint" />
            <mxPoint x="190" y="150" as="targetPoint" />
          </mxGeometry>
        </mxCell>
        <mxCell id="OWnD7IlCAdp8iNeFFtB5-93" value="" style="endArrow=none;html=1;" edge="1" parent="1">
          <mxGeometry width="50" height="50" relative="1" as="geometry">
            <mxPoint x="130" y="160" as="sourcePoint" />
            <mxPoint x="190" y="160" as="targetPoint" />
          </mxGeometry>
        </mxCell>
        <mxCell id="OWnD7IlCAdp8iNeFFtB5-94" value="" style="endArrow=none;html=1;" edge="1" parent="1">
          <mxGeometry width="50" height="50" relative="1" as="geometry">
            <mxPoint x="130" y="170" as="sourcePoint" />
            <mxPoint x="190" y="170" as="targetPoint" />
          </mxGeometry>
        </mxCell>
        <mxCell id="OWnD7IlCAdp8iNeFFtB5-95" value="" style="endArrow=none;html=1;" edge="1" parent="1">
          <mxGeometry width="50" height="50" relative="1" as="geometry">
            <mxPoint x="130" y="180" as="sourcePoint" />
            <mxPoint x="190" y="180" as="targetPoint" />
          </mxGeometry>
        </mxCell>
        <mxCell id="OWnD7IlCAdp8iNeFFtB5-96" value="" style="endArrow=none;html=1;" edge="1" parent="1">
          <mxGeometry width="50" height="50" relative="1" as="geometry">
            <mxPoint x="130" y="189.5" as="sourcePoint" />
            <mxPoint x="190" y="189.5" as="targetPoint" />
          </mxGeometry>
        </mxCell>
        <mxCell id="OWnD7IlCAdp8iNeFFtB5-97" value="" style="endArrow=none;html=1;" edge="1" parent="1">
          <mxGeometry width="50" height="50" relative="1" as="geometry">
            <mxPoint x="130" y="199.5" as="sourcePoint" />
            <mxPoint x="190" y="199.5" as="targetPoint" />
          </mxGeometry>
        </mxCell>
        <mxCell id="OWnD7IlCAdp8iNeFFtB5-98" value="" style="endArrow=none;html=1;" edge="1" parent="1">
          <mxGeometry width="50" height="50" relative="1" as="geometry">
            <mxPoint x="130" y="209.5" as="sourcePoint" />
            <mxPoint x="190" y="209.5" as="targetPoint" />
          </mxGeometry>
        </mxCell>
        <mxCell id="OWnD7IlCAdp8iNeFFtB5-99" value="" style="endArrow=none;html=1;" edge="1" parent="1">
          <mxGeometry width="50" height="50" relative="1" as="geometry">
            <mxPoint x="130" y="219.5" as="sourcePoint" />
            <mxPoint x="190" y="219.5" as="targetPoint" />
          </mxGeometry>
        </mxCell>
        <mxCell id="OWnD7IlCAdp8iNeFFtB5-100" value="" style="endArrow=none;html=1;" edge="1" parent="1">
          <mxGeometry width="50" height="50" relative="1" as="geometry">
            <mxPoint x="130" y="229.5" as="sourcePoint" />
            <mxPoint x="190" y="229.5" as="targetPoint" />
          </mxGeometry>
        </mxCell>
        <mxCell id="OWnD7IlCAdp8iNeFFtB5-101" value="" style="endArrow=none;html=1;" edge="1" parent="1">
          <mxGeometry width="50" height="50" relative="1" as="geometry">
            <mxPoint x="130" y="239.5" as="sourcePoint" />
            <mxPoint x="190" y="239.5" as="targetPoint" />
          </mxGeometry>
        </mxCell>
        <mxCell id="OWnD7IlCAdp8iNeFFtB5-104" value="" style="endArrow=none;html=1;" edge="1" parent="1">
          <mxGeometry width="50" height="50" relative="1" as="geometry">
            <mxPoint x="130" y="249.5" as="sourcePoint" />
            <mxPoint x="190" y="249.5" as="targetPoint" />
          </mxGeometry>
        </mxCell>
        <mxCell id="OWnD7IlCAdp8iNeFFtB5-105" value="" style="endArrow=none;html=1;" edge="1" parent="1">
          <mxGeometry width="50" height="50" relative="1" as="geometry">
            <mxPoint x="130" y="259.5" as="sourcePoint" />
            <mxPoint x="190" y="259.5" as="targetPoint" />
          </mxGeometry>
        </mxCell>
        <mxCell id="OWnD7IlCAdp8iNeFFtB5-106" value="" style="endArrow=none;html=1;" edge="1" parent="1">
          <mxGeometry width="50" height="50" relative="1" as="geometry">
            <mxPoint x="130" y="269.5" as="sourcePoint" />
            <mxPoint x="190" y="269.5" as="targetPoint" />
          </mxGeometry>
        </mxCell>
        <mxCell id="OWnD7IlCAdp8iNeFFtB5-107" value="" style="endArrow=none;html=1;" edge="1" parent="1">
          <mxGeometry width="50" height="50" relative="1" as="geometry">
            <mxPoint x="130" y="279.5" as="sourcePoint" />
            <mxPoint x="190" y="279.5" as="targetPoint" />
          </mxGeometry>
        </mxCell>
        <mxCell id="OWnD7IlCAdp8iNeFFtB5-109" value="" style="endArrow=classic;startArrow=classic;html=1;" edge="1" parent="1">
          <mxGeometry width="50" height="50" relative="1" as="geometry">
            <mxPoint x="270" y="380" as="sourcePoint" />
            <mxPoint x="30" y="380" as="targetPoint" />
          </mxGeometry>
        </mxCell>
        <mxCell id="OWnD7IlCAdp8iNeFFtB5-110" value="20 metri" style="text;html=1;strokeColor=none;fillColor=none;align=center;verticalAlign=middle;whiteSpace=wrap;rounded=0;" vertex="1" parent="1">
          <mxGeometry x="130" y="400" width="40" height="20" as="geometry" />
        </mxCell>
        <mxCell id="OWnD7IlCAdp8iNeFFtB5-111" value="" style="endArrow=classic;startArrow=classic;html=1;" edge="1" parent="1">
          <mxGeometry width="50" height="50" relative="1" as="geometry">
            <mxPoint x="330" y="290" as="sourcePoint" />
            <mxPoint x="330" y="90" as="targetPoint" />
          </mxGeometry>
        </mxCell>
        <mxCell id="OWnD7IlCAdp8iNeFFtB5-112" value="300&amp;nbsp;&lt;br&gt;metri" style="text;html=1;strokeColor=none;fillColor=none;align=center;verticalAlign=middle;whiteSpace=wrap;rounded=0;" vertex="1" parent="1">
          <mxGeometry x="350" y="140" width="40" height="90" as="geometry" />
        </mxCell>
        <mxCell id="OWnD7IlCAdp8iNeFFtB5-113" value="" style="verticalLabelPosition=bottom;verticalAlign=top;html=1;shape=mxgraph.basic.rect;fillColor2=none;strokeWidth=1;size=20;indent=5;direction=south;fillColor=#FF3333;" vertex="1" parent="1">
          <mxGeometry x="110" y="50" width="20" height="30" as="geometry" />
        </mxCell>
        <mxCell id="OWnD7IlCAdp8iNeFFtB5-114" value="" style="verticalLabelPosition=bottom;verticalAlign=top;html=1;shape=mxgraph.basic.rect;fillColor2=none;strokeWidth=1;size=20;indent=5;direction=south;fillColor=#FF3333;" vertex="1" parent="1">
          <mxGeometry x="80" y="50" width="20" height="30" as="geometry" />
        </mxCell>
        <mxCell id="OWnD7IlCAdp8iNeFFtB5-116" value="&lt;b&gt;P&lt;/b&gt;" style="text;html=1;strokeColor=none;fillColor=none;align=center;verticalAlign=middle;whiteSpace=wrap;rounded=0;" vertex="1" parent="1">
          <mxGeometry x="70" y="55" width="40" height="20" as="geometry" />
        </mxCell>
        <mxCell id="OWnD7IlCAdp8iNeFFtB5-117" value="&lt;b&gt;P&lt;/b&gt;" style="text;html=1;strokeColor=none;fillColor=none;align=center;verticalAlign=middle;whiteSpace=wrap;rounded=0;" vertex="1" parent="1">
          <mxGeometry x="100" y="55" width="40" height="20" as="geometry" />
        </mxCell>
        <mxCell id="OWnD7IlCAdp8iNeFFtB5-122" value="" style="rounded=0;whiteSpace=wrap;html=1;fillColor=#FF3333;direction=south;" vertex="1" parent="1">
          <mxGeometry x="230" y="50" width="20" height="30" as="geometry" />
        </mxCell>
        <mxCell id="OWnD7IlCAdp8iNeFFtB5-124" value="" style="rounded=0;whiteSpace=wrap;html=1;fillColor=#FF3333;direction=south;" vertex="1" parent="1">
          <mxGeometry x="200" y="50" width="20" height="30" as="geometry" />
        </mxCell>
        <mxCell id="OWnD7IlCAdp8iNeFFtB5-127" value="&lt;b&gt;P&lt;/b&gt;" style="text;html=1;strokeColor=none;fillColor=none;align=center;verticalAlign=middle;whiteSpace=wrap;rounded=0;" vertex="1" parent="1">
          <mxGeometry x="190" y="55" width="40" height="20" as="geometry" />
        </mxCell>
        <mxCell id="OWnD7IlCAdp8iNeFFtB5-128" value="&lt;b&gt;P&lt;/b&gt;" style="text;html=1;strokeColor=none;fillColor=none;align=center;verticalAlign=middle;whiteSpace=wrap;rounded=0;" vertex="1" parent="1">
          <mxGeometry x="220" y="55" width="40" height="20" as="geometry" />
        </mxCell>
        <mxCell id="OWnD7IlCAdp8iNeFFtB5-129" value="" style="endArrow=classic;startArrow=classic;html=1;" edge="1" parent="1">
          <mxGeometry width="50" height="50" relative="1" as="geometry">
            <mxPoint x="40" y="310" as="sourcePoint" />
            <mxPoint x="70" y="310" as="targetPoint" />
          </mxGeometry>
        </mxCell>
        <mxCell id="OWnD7IlCAdp8iNeFFtB5-130" value="2,5&lt;br&gt;metri" style="text;html=1;strokeColor=none;fillColor=none;align=center;verticalAlign=middle;whiteSpace=wrap;rounded=0;" vertex="1" parent="1">
          <mxGeometry x="40" y="320" width="40" height="20" as="geometry" />
        </mxCell>
        <mxCell id="OWnD7IlCAdp8iNeFFtB5-131" value="" style="endArrow=classic;startArrow=classic;html=1;" edge="1" parent="1">
          <mxGeometry width="50" height="50" relative="1" as="geometry">
            <mxPoint x="70" y="310" as="sourcePoint" />
            <mxPoint x="130" y="310" as="targetPoint" />
          </mxGeometry>
        </mxCell>
        <mxCell id="OWnD7IlCAdp8iNeFFtB5-132" value="Text" style="text;html=1;strokeColor=none;fillColor=none;align=center;verticalAlign=middle;whiteSpace=wrap;rounded=0;" vertex="1" parent="1">
          <mxGeometry x="280" y="180" width="40" height="20" as="geometry" />
        </mxCell>
        <mxCell id="OWnD7IlCAdp8iNeFFtB5-133" value="5&lt;br&gt;metri" style="text;html=1;strokeColor=none;fillColor=none;align=center;verticalAlign=middle;whiteSpace=wrap;rounded=0;" vertex="1" parent="1">
          <mxGeometry x="80" y="320" width="40" height="20" as="geometry" />
        </mxCell>
        <mxCell id="OWnD7IlCAdp8iNeFFtB5-134" value="" style="endArrow=classic;startArrow=classic;html=1;" edge="1" parent="1">
          <mxGeometry width="50" height="50" relative="1" as="geometry">
            <mxPoint x="160" y="310" as="sourcePoint" />
            <mxPoint x="130" y="310" as="targetPoint" />
          </mxGeometry>
        </mxCell>
        <mxCell id="OWnD7IlCAdp8iNeFFtB5-135" value="" style="endArrow=classic;startArrow=classic;html=1;" edge="1" parent="1">
          <mxGeometry width="50" height="50" relative="1" as="geometry">
            <mxPoint x="190" y="310" as="sourcePoint" />
            <mxPoint x="160" y="310" as="targetPoint" />
          </mxGeometry>
        </mxCell>
        <mxCell id="OWnD7IlCAdp8iNeFFtB5-136" value="2,5&lt;br&gt;metri" style="text;html=1;strokeColor=none;fillColor=none;align=center;verticalAlign=middle;whiteSpace=wrap;rounded=0;" vertex="1" parent="1">
          <mxGeometry x="120" y="320" width="40" height="20" as="geometry" />
        </mxCell>
        <mxCell id="OWnD7IlCAdp8iNeFFtB5-137" value="2,5&lt;br&gt;metri" style="text;html=1;strokeColor=none;fillColor=none;align=center;verticalAlign=middle;whiteSpace=wrap;rounded=0;" vertex="1" parent="1">
          <mxGeometry x="160" y="320" width="40" height="20" as="geometry" />
        </mxCell>
        <mxCell id="OWnD7IlCAdp8iNeFFtB5-138" value="" style="endArrow=classic;startArrow=classic;html=1;" edge="1" parent="1">
          <mxGeometry width="50" height="50" relative="1" as="geometry">
            <mxPoint x="190" y="310" as="sourcePoint" />
            <mxPoint x="250" y="310" as="targetPoint" />
          </mxGeometry>
        </mxCell>
        <mxCell id="OWnD7IlCAdp8iNeFFtB5-139" value="5&lt;br&gt;metri" style="text;html=1;strokeColor=none;fillColor=none;align=center;verticalAlign=middle;whiteSpace=wrap;rounded=0;" vertex="1" parent="1">
          <mxGeometry x="200" y="320" width="40" height="20" as="geometry" />
        </mxCell>
        <mxCell id="OWnD7IlCAdp8iNeFFtB5-140" value="" style="endArrow=classic;startArrow=classic;html=1;" edge="1" parent="1">
          <mxGeometry width="50" height="50" relative="1" as="geometry">
            <mxPoint x="280" y="310" as="sourcePoint" />
            <mxPoint x="250" y="310" as="targetPoint" />
          </mxGeometry>
        </mxCell>
        <mxCell id="OWnD7IlCAdp8iNeFFtB5-143" value="2,5&lt;br&gt;metri" style="text;html=1;strokeColor=none;fillColor=none;align=center;verticalAlign=middle;whiteSpace=wrap;rounded=0;" vertex="1" parent="1">
          <mxGeometry x="240" y="320" width="40" height="20" as="geometry" />
        </mxCell>
        <mxCell id="OWnD7IlCAdp8iNeFFtB5-144" value="" style="endArrow=none;html=1;" edge="1" parent="1">
          <mxGeometry width="50" height="50" relative="1" as="geometry">
            <mxPoint x="281" y="97" as="sourcePoint" />
            <mxPoint x="250" y="97" as="targetPoint" />
          </mxGeometry>
        </mxCell>
        <mxCell id="OWnD7IlCAdp8iNeFFtB5-145" value="" style="endArrow=none;html=1;" edge="1" parent="1">
          <mxGeometry width="50" height="50" relative="1" as="geometry">
            <mxPoint x="280" y="107" as="sourcePoint" />
            <mxPoint x="250" y="107" as="targetPoint" />
          </mxGeometry>
        </mxCell>
        <mxCell id="OWnD7IlCAdp8iNeFFtB5-146" value="" style="endArrow=none;html=1;" edge="1" parent="1">
          <mxGeometry width="50" height="50" relative="1" as="geometry">
            <mxPoint x="280" y="117" as="sourcePoint" />
            <mxPoint x="250" y="117" as="targetPoint" />
          </mxGeometry>
        </mxCell>
        <mxCell id="OWnD7IlCAdp8iNeFFtB5-147" value="" style="endArrow=none;html=1;" edge="1" parent="1">
          <mxGeometry width="50" height="50" relative="1" as="geometry">
            <mxPoint x="280" y="124.5" as="sourcePoint" />
            <mxPoint x="250" y="124.5" as="targetPoint" />
          </mxGeometry>
        </mxCell>
        <mxCell id="OWnD7IlCAdp8iNeFFtB5-148" value="" style="endArrow=none;html=1;exitX=0;exitY=0;exitDx=0;exitDy=0;" edge="1" parent="1" source="OWnD7IlCAdp8iNeFFtB5-26">
          <mxGeometry width="50" height="50" relative="1" as="geometry">
            <mxPoint x="280" y="220" as="sourcePoint" />
            <mxPoint y="30" as="targetPoint" />
          </mxGeometry>
        </mxCell>
        <mxCell id="OWnD7IlCAdp8iNeFFtB5-149" value="h 10 container&amp;nbsp;" style="text;html=1;strokeColor=none;fillColor=none;align=center;verticalAlign=middle;whiteSpace=wrap;rounded=0;" vertex="1" parent="1">
          <mxGeometry x="20" y="20" width="40" height="20" as="geometry" />
        </mxCell>
        <mxCell id="OWnD7IlCAdp8iNeFFtB5-151" value="" style="endArrow=none;html=1;" edge="1" parent="1">
          <mxGeometry width="50" height="50" relative="1" as="geometry">
            <mxPoint y="110" as="sourcePoint" />
            <mxPoint x="30" y="75" as="targetPoint" />
          </mxGeometry>
        </mxCell>
      </root>
    </mxGraphModel>
  </diagram>
</mxfile>
